#!OML:ASF G:\JayActor3\Patient Classification 1\Patient 1\Session 6\male.ASF
:FULLY-SPECIFIED
:DEGREES
1171
root 11.7046 16.3235 -5.63672 14.7807 -52.3743 -8.4427
lowerback 24.7435 -0.127147 4.3967
upperback 6.06224 0.673654 0.236066
thorax -6.9889 0.156346 -2.45038
lowerneck -4.27334 -1.53429 3.69023
upperneck 22.6521 -2.5634 -1.61182
head 7.58587 -1.17332 -1.36552
rclavicle -3.69739e-014 -2.78299e-015
rhumerus 10.3423 36.0258 -72.5054
rradius 127.792
rwrist 6.46805
rhand 18.4843 -31.0336
rfingers 7.12502
rthumb 43.1205 -55.2368
lclavicle -3.69739e-014 -2.78299e-015
lhumerus -42.8012 -24.2483 88.9378
lradius 48.1341
lwrist 34.1652
lhand -19.3151 14.4945
lfingers 7.12502
lthumb 7.001 44.3587
rfemur -32.6236 -1.27235 29.1712
rtibia 38.5616
rfoot -18.5806 -12.7069
rtoes 15.4888
lfemur -27.0254 11.347 -19.119
ltibia 33.2007
lfoot -14.9933 -1.27928
ltoes 10.1485
1172
root 11.705 16.3236 -5.63706 14.7881 -52.3575 -8.46196
lowerback 24.7334 -0.12626 4.40181
upperback 6.0774 0.675 0.241578
thorax -6.96686 0.157458 -2.44743
lowerneck -4.27286 -1.5331 3.70077
upperneck 22.6454 -2.55996 -1.62447
head 7.58329 -1.1719 -1.37107
rclavicle 7.23576e-014 -4.65156e-014
rhumerus 10.3819 36.0214 -72.4592
rradius 127.8
rwrist 6.46355
rhand 18.4517 -31.0221
rfingers 7.12502
rthumb 43.0901 -55.2361
lclavicle 7.23576e-014 -4.65156e-014
lhumerus -42.762 -24.2559 88.9421
lradius 48.1374
lwrist 34.0872
lhand -19.3098 14.4825
lfingers 7.12502
lthumb 7.0061 44.3466
rfemur -32.6113 -1.24861 29.1789
rtibia 38.5544
rfoot -18.5859 -12.7361
rtoes 15.503
lfemur -27.0316 11.4463 -19.117
ltibia 33.2049
lfoot -14.9683 -1.39904
ltoes 10.2276
1173
root 11.7055 16.3239 -5.63723 14.7965 -52.3393 -8.48069
lowerback 24.7234 -0.12665 4.40475
upperback 6.09152 0.674556 0.250727
thorax -6.94626 0.157712 -2.43872
lowerneck -4.27165 -1.52977 3.70388
upperneck 22.6352 -2.55302 -1.63497
head 7.57966 -1.16926 -1.37434
rclavicle 1.15295e-014 6.06293e-014
rhumerus 10.4273 36.023 -72.4053
rradius 127.815
rwrist 6.43623
rhand 18.4291 -31.0177
rfingers 7.12502
rthumb 43.069 -55.2392
lclavicle 1.15295e-014 6.06293e-014
lhumerus -42.7305 -24.2597 88.9576
lradius 48.135
lwrist 33.9609
lhand -19.315 14.4491
lfingers 7.12502
lthumb 7.00112 44.3133
rfemur -32.602 -1.23008 29.1859
rtibia 38.5477
rfoot -18.5879 -12.7582
rtoes 15.5225
lfemur -27.0396 11.5268 -19.1143
ltibia 33.2101
lfoot -14.9425 -1.51052
ltoes 10.3142
1174
root 11.7061 16.3241 -5.6372 14.803 -52.321 -8.49469
lowerback 24.7131 -0.127101 4.40641
upperback 6.10455 0.673834 0.260373
thorax -6.92677 0.15783 -2.42866
lowerneck -4.26672 -1.52678 3.70498
upperneck 22.6166 -2.54616 -1.64405
head 7.57259 -1.16673 -1.37663
rclavicle 4.17448e-015 2.76311e-014
rhumerus 10.4769 36.0267 -72.3454
rradius 127.835
rwrist 6.39429
rhand 18.4193 -31.0171
rfingers 7.12502
rthumb 43.0598 -55.2419
lclavicle 4.17448e-015 2.76311e-014
lhumerus -42.7093 -24.2716 88.9837
lradius 48.1344
lwrist 33.8079
lhand -19.3275 14.3969
lfingers 7.12502
lthumb 6.98901 44.2616
rfemur -32.5963 -1.22224 29.1919
rtibia 38.5436
rfoot -18.583 -12.7735
rtoes 15.5172
lfemur -27.0485 11.5858 -19.1145
ltibia 33.2138
lfoot -14.9133 -1.60639
ltoes 10.3814
1175
root 11.7069 16.3244 -5.6369 14.8071 -52.3042 -8.50198
lowerback 24.701 -0.127624 4.40706
upperback 6.11659 0.672649 0.26846
thorax -6.90753 0.157745 -2.41959
lowerneck -4.25954 -1.52404 3.70581
upperneck 22.5908 -2.53995 -1.64988
head 7.56279 -1.16428 -1.37771
rclavicle 2.94201e-014 3.24019e-014
rhumerus 10.5289 36.0316 -72.2858
rradius 127.858
rwrist 6.34529
rhand 18.4212 -31.0243
rfingers 7.12502
rthumb 43.0616 -55.2484
lclavicle 2.94201e-014 3.24019e-014
lhumerus -42.6956 -24.2924 89.0174
lradius 48.1339
lwrist 33.647
lhand -19.3414 14.3307
lfingers 7.12502
lthumb 6.97559 44.1957
rfemur -32.5967 -1.21953 29.1929
rtibia 38.5428
rfoot -18.5781 -12.7821
rtoes 15.5279
lfemur -27.0568 11.6175 -19.1181
ltibia 33.2136
lfoot -14.8834 -1.68344
ltoes 10.447
1176
root 11.7078 16.3248 -5.63641 14.807 -52.2905 -8.49903
lowerback 24.6854 -0.127826 4.4058
upperback 6.12857 0.671006 0.273419
thorax -6.88656 0.157524 -2.41268
lowerneck -4.24936 -1.522 3.70805
upperneck 22.5533 -2.53462 -1.65425
head 7.54857 -1.16205 -1.37839
rclavicle -5.36719e-014 5.96354e-015
rhumerus 10.586 36.0363 -72.2247
rradius 127.88
rwrist 6.29588
rhand 18.4292 -31.0392
rfingers 7.12502
rthumb 43.069 -55.2607
lclavicle -5.36719e-014 5.96354e-015
lhumerus -42.6882 -24.3235 89.0556
lradius 48.1396
lwrist 33.5048
lhand -19.3587 14.264
lfingers 7.12502
lthumb 6.95886 44.1296
rfemur -32.6044 -1.21801 29.1869
rtibia 38.5455
rfoot -18.5718 -12.7905
rtoes 15.5416
lfemur -27.0659 11.6229 -19.1284
ltibia 33.209
lfoot -14.8537 -1.73473
ltoes 10.4878
1177
root 11.7089 16.3253 -5.63587 14.8081 -52.2787 -8.49096
lowerback 24.666 -0.129024 4.40482
upperback 6.13969 0.667859 0.275858
thorax -6.86471 0.156621 -2.40823
lowerneck -4.23623 -1.51993 3.70979
upperneck 22.5067 -2.5294 -1.65566
head 7.53088 -1.1597 -1.37784
rclavicle 8.28932e-014 -6.16232e-015
rhumerus 10.648 36.0419 -72.1641
rradius 127.899
rwrist 6.25252
rhand 18.4399 -31.0514
rfingers 7.12502
rthumb 43.0791 -55.2694
lclavicle 8.28932e-014 -6.16232e-015
lhumerus -42.6853 -24.358 89.0943
lradius 48.1504
lwrist 33.3971
lhand -19.3662 14.2017
lfingers 7.12502
lthumb 6.95163 44.0676
rfemur -32.62 -1.21213 29.1769
rtibia 38.5504
rfoot -18.567 -12.8022
rtoes 15.5732
lfemur -27.0766 11.6011 -19.1403
ltibia 33.1998
lfoot -14.8259 -1.76195
ltoes 10.5328
1178
root 11.7099 16.3258 -5.63538 14.8057 -52.2689 -8.47485
lowerback 24.6445 -0.130144 4.40126
upperback 6.15091 0.663852 0.27533
thorax -6.84179 0.155375 -2.40528
lowerneck -4.22189 -1.5185 3.71239
upperneck 22.4532 -2.52551 -1.654
head 7.51071 -1.15767 -1.37641
rclavicle -5.9039e-014 -2.18663e-015
rhumerus 10.7117 36.0471 -72.1052
rradius 127.913
rwrist 6.2185
rhand 18.4425 -31.0596
rfingers 7.12502
rthumb 43.0815 -55.2767
lclavicle -5.9039e-014 -2.18663e-015
lhumerus -42.6826 -24.3936 89.1299
lradius 48.1644
lwrist 33.3312
lhand -19.3569 14.1511
lfingers 7.12502
lthumb 6.96061 44.0167
rfemur -32.6394 -1.20145 29.162
rtibia 38.5567
rfoot -18.5628 -12.8214
rtoes 15.5957
lfemur -27.0872 11.5571 -19.1554
ltibia 33.1883
lfoot -14.8047 -1.76428
ltoes 10.5672
1179
root 11.7111 16.3262 -5.63502 14.8043 -52.2576 -8.4562
lowerback 24.6221 -0.134177 4.39854
upperback 6.162 0.656202 0.273767
thorax -6.81873 0.152386 -2.40287
lowerneck -4.20886 -1.51543 3.71218
upperneck 22.3964 -2.51956 -1.64937
head 7.48984 -1.15465 -1.37335
rclavicle 1.23246e-014 1.5704e-014
rhumerus 10.7779 36.0556 -72.0492
rradius 127.922
rwrist 6.19142
rhand 18.454 -31.0501
rfingers 7.12502
rthumb 43.0923 -55.2634
lclavicle 1.23246e-014 1.5704e-014
lhumerus -42.6781 -24.4203 89.1594
lradius 48.1804
lwrist 33.3003
lhand -19.3297 14.1174
lfingers 7.12502
lthumb 6.9869 43.9821
rfemur -32.662 -1.18453 29.1458
rtibia 38.5631
rfoot -18.5616 -12.8506
rtoes 15.6091
lfemur -27.0992 11.4895 -19.1687
ltibia 33.1759
lfoot -14.7913 -1.74182
ltoes 10.6118
1180
root 11.7123 16.3265 -5.63486 14.8033 -52.2456 -8.4388
lowerback 24.6012 -0.138932 4.39481
upperback 6.17344 0.647499 0.273155
thorax -6.7962 0.14888 -2.39854
lowerneck -4.1958 -1.51199 3.71059
upperneck 22.3392 -2.51324 -1.64343
head 7.46889 -1.15145 -1.36961
rclavicle -5.96354e-016 -2.18663e-014
rhumerus 10.8423 36.0657 -71.9961
rradius 127.925
rwrist 6.17107
rhand 18.4626 -31.0218
rfingers 7.12502
rthumb 43.1003 -55.2322
lclavicle -5.96354e-016 -2.18663e-014
lhumerus -42.6696 -24.4385 89.184
lradius 48.1928
lwrist 33.2886
lhand -19.2838 14.0882
lfingers 7.12502
lthumb 7.03123 43.9514
rfemur -32.6826 -1.16057 29.131
rtibia 38.5692
rfoot -18.562 -12.8899
rtoes 15.6033
lfemur -27.1104 11.4136 -19.1784
ltibia 33.1654
lfoot -14.7866 -1.70473
ltoes 10.6475
1181
root 11.7134 16.3267 -5.63494 14.8036 -52.2314 -8.42444
lowerback 24.5821 -0.143895 4.38963
upperback 6.18478 0.638471 0.275126
thorax -6.77477 0.145196 -2.39048
lowerneck -4.18193 -1.50834 3.71104
upperneck 22.2837 -2.50646 -1.63984
head 7.44835 -1.14809 -1.36697
rclavicle 7.7526e-014 -1.17283e-014
rhumerus 10.9006 36.0759 -71.9491
rradius 127.925
rwrist 6.14749
rhand 18.4705 -30.9808
rfingers 7.12502
rthumb 43.1077 -55.1885
lclavicle 7.7526e-014 -1.17283e-014
lhumerus -42.6583 -24.4486 89.2065
lradius 48.2008
lwrist 33.2725
lhand -19.2354 14.0568
lfingers 7.12502
lthumb 7.07789 43.9185
rfemur -32.7014 -1.12815 29.1174
rtibia 38.5745
rfoot -18.568 -12.9376
rtoes 15.5963
lfemur -27.1216 11.3347 -19.1835
ltibia 33.1583
lfoot -14.7909 -1.65797
ltoes 10.6739
1182
root 11.7144 16.3267 -5.63521 14.807 -52.2155 -8.41623
lowerback 24.5656 -0.147878 4.38552
upperback 6.19533 0.631374 0.2801
thorax -6.75544 0.14236 -2.38035
lowerneck -4.1646 -1.50587 3.71195
upperneck 22.2307 -2.50119 -1.63706
head 7.42794 -1.14548 -1.36478
rclavicle -4.07509e-014 7.95139e-015
rhumerus 10.9492 36.0825 -71.9089
rradius 127.92
rwrist 6.11791
rhand 18.4744 -30.9337
rfingers 7.12502
rthumb 43.1113 -55.1402
lclavicle -4.07509e-014 7.95139e-015
lhumerus -42.6433 -24.4518 89.2287
lradius 48.2005
lwrist 33.2292
lhand -19.1909 14.0085
lfingers 7.12502
lthumb 7.12085 43.8687
rfemur -32.717 -1.09454 29.1092
rtibia 38.5791
rfoot -18.5742 -12.9907
rtoes 15.5665
lfemur -27.1333 11.2592 -19.1827
ltibia 33.1558
lfoot -14.8006 -1.6083
ltoes 10.6908
1183
root 11.7153 16.3266 -5.63556 14.8158 -52.199 -8.41673
lowerback 24.5507 -0.149867 4.38354
upperback 6.2045 0.627796 0.288608
thorax -6.73815 0.141125 -2.36863
lowerneck -4.14482 -1.5049 3.71152
upperneck 22.1846 -2.4982 -1.63343
head 7.40934 -1.14398 -1.36233
rclavicle 2.90226e-014 -1.43125e-014
rhumerus 10.9843 36.0827 -71.8786
rradius 127.914
rwrist 6.08035
rhand 18.4587 -30.9057
rfingers 7.12502
rthumb 43.0966 -55.1174
lclavicle 2.90226e-014 -1.43125e-014
lhumerus -42.626 -24.4507 89.2521
lradius 48.1882
lwrist 33.1353
lhand -19.1481 13.9223
lfingers 7.12502
lthumb 7.16224 43.7811
rfemur -32.7296 -1.06137 29.1072
rtibia 38.5831
rfoot -18.5855 -13.0392
rtoes 15.5511
lfemur -27.1463 11.1944 -19.1761
ltibia 33.1582
lfoot -14.813 -1.56291
ltoes 10.691
